<svg id="Layer_1" data-name="Layer 1" xmlns="http://www.w3.org/2000/svg" viewBox="0 0 565.34 172.35"><path d="M304.54,46.12q-16.46-7.34-39.18-7.34H189.61V204.5h46.87V161.18h28.88q22.74,0,39.18-7.46T330,132.53q9-13.73,9-32.43,0-18.93-9-32.79T304.54,46.12Zm-20.12,71.74q-7.21,6.39-21.9,6.39h-26V75.72h26q14.69,0,21.9,6.39t7.22,18Q291.64,111.47,284.42,117.86ZM76.92,168.28h86.64V204.5h-133V38.78h130V75H76.92v27.93h73.62v35H76.92ZM566,149.58l29.83,27a81.05,81.05,0,0,1-30.19,23.08q-18.1,8.17-41.07,8.17a102.51,102.51,0,0,1-36.34-6.27,84.54,84.54,0,0,1-28.89-17.88,83.11,83.11,0,0,1-19.05-27.34,85.83,85.83,0,0,1-6.87-34.69A85.81,85.81,0,0,1,440.32,87a83.11,83.11,0,0,1,19.05-27.34,84.69,84.69,0,0,1,28.89-17.88,102.51,102.51,0,0,1,36.34-6.27q22.95,0,41.07,8.05a79,79,0,0,1,30.19,23.2L566,93.71a58.85,58.85,0,0,0-17.64-14.44,45.75,45.75,0,0,0-21.42-5,51.19,51.19,0,0,0-18.71,3.31A40.16,40.16,0,0,0,493.7,87.2a45.21,45.21,0,0,0-9.47,15,52.75,52.75,0,0,0-3.43,19.41,52.77,52.77,0,0,0,3.43,19.42,45.21,45.21,0,0,0,9.47,15,40.16,40.16,0,0,0,14.56,9.59A51.19,51.19,0,0,0,527,169a45.75,45.75,0,0,0,21.42-5A58.85,58.85,0,0,0,566,149.58ZM361.72,38.78H408.6V204.5H361.72Z" transform="translate(-30.51 -35.47)" fill="#fff"/></svg>